<svg width="35" height="35" viewBox="0 0 35 35" fill="none" xmlns="http://www.w3.org/2000/svg">
<circle cx="17.5" cy="17.5" r="17.5" fill="white"/>
<path d="M26 8H10C8.9 8 8 8.9 8 10V26C8 27.1 8.9 28 10 28H26C27.1 28 28 27.1 28 26V10C28 8.9 27.1 8 26 8ZM14 25H11V16H14V25ZM12.5 14.3C11.5 14.3 10.7 13.5 10.7 12.5C10.7 11.5 11.5 10.7 12.5 10.7C13.5 10.7 14.3 11.5 14.3 12.5C14.3 13.5 13.5 14.3 12.5 14.3ZM25 25H22V19.7C22 18.9 21.3 18.2 20.5 18.2C19.7 18.2 19 18.9 19 19.7V25H16V16H19V17.2C19.5 16.4 20.6 15.8 21.5 15.8C23.4 15.8 25 17.4 25 19.3V25Z" fill="black"/>
</svg>
